<svg xmlns="http://www.w3.org/2000/svg" width="34" height="34" viewBox="0 0 34 34">
  <metadata><?xpacket begin="﻿" id="W5M0MpCehiHzreSzNTczkc9d"?>
<x:xmpmeta xmlns:x="adobe:ns:meta/" x:xmptk="Adobe XMP Core 5.6-c138 79.159824, 2016/09/14-01:09:01        ">
   <rdf:RDF xmlns:rdf="http://www.w3.org/1999/02/22-rdf-syntax-ns#">
      <rdf:Description rdf:about=""/>
   </rdf:RDF>
</x:xmpmeta>
                                                                                                    
                                                                                                    
                                                                                                    
                                                                                                    
                                                                                                    
                                                                                                    
                                                                                                    
                                                                                                    
                                                                                                    
                                                                                                    
                                                                                                    
                                                                                                    
                                                                                                    
                                                                                                    
                                                                                                    
                                                                                                    
                                                                                                    
                                                                                                    
                                                                                                    
                                                                                                    
                           
<?xpacket end="w"?></metadata>
<defs>
    <style>
      .cls-1 {
        fill: #fff;
        fill-rule: evenodd;
      }
    </style>
  </defs>
  <path id="gear" class="cls-1" d="M836.984,3939.66a12.706,12.706,0,0,0,.122-1.66,12.992,12.992,0,0,0-.122-1.67l3.688-2.8a0.846,0.846,0,0,0,.21-1.09l-3.5-5.88a0.893,0.893,0,0,0-1.066-.38l-4.352,1.7a12.664,12.664,0,0,0-2.954-1.66l-0.664-4.51a0.84,0.84,0,0,0-.857-0.71H820.5a0.839,0.839,0,0,0-.856.71l-0.664,4.51a13.406,13.406,0,0,0-2.954,1.66l-4.352-1.7a0.864,0.864,0,0,0-1.067.38l-3.5,5.88a0.827,0.827,0,0,0,.21,1.09l3.687,2.8a13.452,13.452,0,0,0-.122,1.67,13.153,13.153,0,0,0,.122,1.66l-3.687,2.81a0.841,0.841,0,0,0-.21,1.09l3.5,5.88a0.89,0.89,0,0,0,1.067.37l4.352-1.7a13.05,13.05,0,0,0,2.954,1.67l0.664,4.5a0.848,0.848,0,0,0,.856.72h6.991a0.849,0.849,0,0,0,.857-0.72l0.664-4.5a13.465,13.465,0,0,0,2.954-1.67l4.352,1.7a0.87,0.87,0,0,0,1.066-.37l3.5-5.88a0.842,0.842,0,0,0-.21-1.09ZM824,3943.95a5.952,5.952,0,1,1,6.117-5.95A6.043,6.043,0,0,1,824,3943.95Z" transform="translate(-807 -3921)"/>
</svg>
