<svg xmlns="http://www.w3.org/2000/svg" width="36" height="40" viewBox="0 0 36 40">
  <metadata><?xpacket begin="﻿" id="W5M0MpCehiHzreSzNTczkc9d"?>
<x:xmpmeta xmlns:x="adobe:ns:meta/" x:xmptk="Adobe XMP Core 5.6-c138 79.159824, 2016/09/14-01:09:01        ">
   <rdf:RDF xmlns:rdf="http://www.w3.org/1999/02/22-rdf-syntax-ns#">
      <rdf:Description rdf:about=""/>
   </rdf:RDF>
</x:xmpmeta>
                                                                                                    
                                                                                                    
                                                                                                    
                                                                                                    
                                                                                                    
                                                                                                    
                                                                                                    
                                                                                                    
                                                                                                    
                                                                                                    
                                                                                                    
                                                                                                    
                                                                                                    
                                                                                                    
                                                                                                    
                                                                                                    
                                                                                                    
                                                                                                    
                                                                                                    
                                                                                                    
                           
<?xpacket end="w"?></metadata>
<defs>
    <style>
      .cls-1 {
        fill: #fff;
        fill-rule: evenodd;
      }
    </style>
  </defs>
  <path id="multiprice" class="cls-1" d="M1213,4793v-28h26v-2h-26a2,2,0,0,0-2,2v30h2v-2Zm-4-4v-28h26v-2h-26a2,2,0,0,0-2,2v30h2v-2Zm6-20v28a2.006,2.006,0,0,0,2,2h24a2.006,2.006,0,0,0,2-2v-28a2,2,0,0,0-2-2h-24A2,2,0,0,0,1215,4769Zm20.64,22-4.58-4.57v-0.72l-0.24-.26a5.947,5.947,0,1,1,.64-0.64l0.25,0.25h0.72l4.57,4.57Zm-8.69-14.17a4.115,4.115,0,1,0,4.11,4.11A4.112,4.112,0,0,0,1226.95,4776.83Z" transform="translate(-1207 -4759)"/>
</svg>
