<svg xmlns="http://www.w3.org/2000/svg" width="35" height="26" viewBox="0 0 35 26">
  <metadata><?xpacket begin="﻿" id="W5M0MpCehiHzreSzNTczkc9d"?>
<x:xmpmeta xmlns:x="adobe:ns:meta/" x:xmptk="Adobe XMP Core 5.6-c138 79.159824, 2016/09/14-01:09:01        ">
   <rdf:RDF xmlns:rdf="http://www.w3.org/1999/02/22-rdf-syntax-ns#">
      <rdf:Description rdf:about=""/>
   </rdf:RDF>
</x:xmpmeta>
                                                                                                    
                                                                                                    
                                                                                                    
                                                                                                    
                                                                                                    
                                                                                                    
                                                                                                    
                                                                                                    
                                                                                                    
                                                                                                    
                                                                                                    
                                                                                                    
                                                                                                    
                                                                                                    
                                                                                                    
                                                                                                    
                                                                                                    
                                                                                                    
                                                                                                    
                                                                                                    
                           
<?xpacket end="w"?></metadata>
<defs>
    <style>
      .cls-1 {
        fill: #fff;
        fill-rule: evenodd;
      }
    </style>
  </defs>
  <path id="refresh" class="cls-1" d="M1236.64,3931.5l-6.37,6.5h4.78a9.657,9.657,0,0,1-9.55,9.75,9.172,9.172,0,0,1-4.45-1.14l-2.33,2.37a12.42,12.42,0,0,0,6.78,2.02,12.867,12.867,0,0,0,12.73-13H1243Zm-20.69,6.5a9.657,9.657,0,0,1,9.55-9.75,9.063,9.063,0,0,1,4.45,1.14l2.33-2.38a12.5,12.5,0,0,0-6.78-2.01,12.867,12.867,0,0,0-12.73,13H1208l6.36,6.5,6.37-6.5h-4.78Z" transform="translate(-1208 -3925)"/>
</svg>
